<?xml version="1.0" encoding="utf-8"?>
<!-- Generator: Adobe Illustrator 14.0.0, SVG Export Plug-In . SVG Version: 6.00 Build 43363)  -->
<!DOCTYPE svg PUBLIC "-//W3C//DTD SVG 1.1//EN" "http://www.w3.org/Graphics/SVG/1.1/DTD/svg11.dtd">
<svg version="1.1" id="Palate_Deck_Logo" xmlns="http://www.w3.org/2000/svg" xmlns:xlink="http://www.w3.org/1999/xlink" x="0px"
	 y="0px" width="200px" height="200px" viewBox="0 0 200 200" enable-background="new 0 0 200 200" xml:space="preserve">
<g>
	<path fill="#10434B" d="M37.3,65.8c0,7.7,0,23.5,0,39.3l0,0.1c0,3.1,7,2.1,7-5.2V70.2C44.2,64.9,40.7,63.4,37.3,65.8z"/>
	<g>
		<path fill="#10434B" d="M164.2,81.4c0-3.1-7-2.1-7,5.2v13.8l7-4.1V81.4z"/>
		<path fill="#10434B" d="M117.9,82.7c-0.3-1.4-1.5-3.3-4.2-2.7c-2.6,0.6-2.6,3.1-2.6,6.7v29.7c0,5.4,3.5,6.8,7,4.3
			c-0.1-0.7-0.2-1.4-0.2-2.2V82.7z"/>
		<path fill="#10434B" d="M72.6,82.7c-0.3-1.4-1.5-3.3-4.2-2.7c-2.6,0.6-2.6,3.1-2.6,6.7v29.7c0,5.4,3.5,6.8,7,4.3
			c-0.1-0.7-0.2-1.4-0.2-2.2V82.7z"/>
	</g>
	<path fill="#10434B" d="M100,198h-0.3c-26.2-0.1-50.8-10.3-69.2-28.9S1.9,125.9,2,99.8c0.1-26.1,10.3-50.7,28.8-69.1
		C49.3,12.2,73.9,2,100,2h0.3c54,0.1,97.9,44.2,97.7,98.2c-0.1,26.1-10.3,50.7-28.8,69.1C150.7,187.8,126.1,198,100,198 M100,5.6
		c-25.2,0-48.8,9.8-66.7,27.6C15.5,50.9,5.6,74.6,5.6,99.8c-0.1,25.2,9.7,49,27.5,66.8c17.8,17.9,41.5,27.8,66.7,27.8h0.2
		c25.2,0,48.8-9.8,66.7-27.6c17.8-17.8,27.7-41.4,27.7-66.6c0.1-52.1-42.1-94.5-94.2-94.7L100,5.6z"/>
	<path fill="#10434B" d="M57.9,141.9h-8v10.2h8c3.7,0,5.7-0.7,6.5-1.6c0.8-0.8,1.2-1.9,1.2-3.5s-0.4-2.7-1.2-3.5
		C63.6,142.6,61.6,141.9,57.9,141.9z"/>
	<g>
		<path fill="#10434B" d="M100,9C49.7,9,9,49.7,9,100c0,50.3,40.8,91,91,91s91-40.8,91-91C191,49.7,150.3,9,100,9z M116.1,40.4
			l0.3,1.1l-9.3,2.8c0.7,1.3,2,2.1,3.5,2.1c1.6,0,3-0.9,3.6-2.3l0.2-0.5l2,0.9l-0.2,0.5c-1,2.2-3.2,3.6-5.6,3.6
			c-3.4,0-6.2-2.8-6.2-6.2c0-3.4,2.6-6.1,6-6.1C113.1,36.3,115.3,37.8,116.1,40.4z M78.9,28.2h14.8v-7.7h2.2v7.7h11.4v2.2H95.9v7.1
			c0.4-0.3,0.9-0.6,1.4-0.7c1.5-0.5,3.1-0.2,4,0.7c1.1,1.1,1.4,2.5,1.4,4.4v10.9l-2.2,1.3V41.9c0-1.9-0.2-2.4-0.7-2.9
			c-0.3-0.3-1.1-0.4-1.8-0.1c-1.1,0.4-1.9,1.3-2.1,2.5v15.4l-2.2,1.3V30.4h-4v29.9l-2.2,1.3V30.4h-8.7c-1.7,0-3.1,1.4-3.1,3.1
			s1.4,3.1,3.1,3.1c1.7,0,3.1-1.4,3.1-3l0-0.5h2.2l0,0.5c0,2.8-2.4,5.2-5.2,5.2c-2.9,0-5.2-2.4-5.2-5.2S76,28.2,78.9,28.2z
			 M37.3,112.8c0,10.3,0,17.4,0,24.1l-8.2,4.9V66.2l8.2-4.9v0c1.6-1,2.8-1.6,3-1.8c2.3-1.2,12.1-1.6,12.1,8.4V97
			c0,6.1-3.1,8.6-6.9,10.7L37.3,112.8z M67.2,152.4c-1.2,1.2-3.8,2.5-9.2,2.5H46.4v-15.9H58c5.4,0,7.9,1.3,9.2,2.5
			c1.4,1.4,2,3.2,2,5.4C69.2,149.2,68.6,151,67.2,152.4z M96.2,145.5v2.8H79.4v3.8h17.1v2.9H75.9v-15.9h20.6v2.9H79.4v3.6H96.2z
			 M104.3,177.6l-4.3-3.2l-4.4,3.2l1.7-5.1l-4.3-3.1h5.3l1.7-5.1l1.7,5.1h5.4l-4.3,3.1L104.3,177.6z M124.5,144
			c-2.3-1.3-5.8-2.4-9.7-2.4c-3.9,0-6.4,0.8-7.4,1.8c-0.8,0.8-1.3,2-1.3,3.6s0.5,2.7,1.3,3.6c1,1,3.5,1.9,7.4,1.9
			c3.9,0,7.5-1,9.7-2.3v3.1c-1.9,1.1-5.3,2-9.7,2c-5.6,0-8.6-1.3-10.1-2.8c-1.4-1.4-2.1-3.3-2.1-5.5c0-2.2,0.7-4.1,2.1-5.5
			c1.5-1.5,4.5-2.8,10.1-2.8c4.5,0,7.8,0.9,9.7,2V144z M153.6,154.9h-5.5l-10.1-6.6h-3.1v6.6h-3.5v-15.9h3.5v6.4h3.3l9.9-6.4h5.2
			v0.1l-12.3,7.8L153.6,154.9L153.6,154.9z M161.3,127c-1.7,0.9-7.7,1.3-10.6-2.8c-2.5,1.5-4.4,2.6-4.7,2.8c-1.8,0.9-8,1.3-10.8-3
			c-2.7,1.6-4.8,2.8-5.1,3c-1.7,0.9-7.6,1.3-10.5-2.7c-2.4,1.4-4.2,2.5-4.5,2.7c-1.7,0.9-7.7,1.3-10.6-2.8c-2.5,1.5-4.4,2.6-4.7,2.8
			c-1.7,0.9-7.6,1.3-10.5-2.7c-2.4,1.4-4.2,2.5-4.5,2.7c-1.7,0.9-7.6,1.3-10.5-2.7c-2.4,1.4-4.2,2.5-4.5,2.7
			c-2.3,1.2-12.1,1.6-12.1-8.4V88.9c0-6.1,0.9-13.4,6.7-14.6c6-1.3,8.2,3.7,8.4,4.4l8.1-4.8c0,8.5,0,39.3,0,42.6
			c0,5.4,3.6,6.8,7.1,4.4c-0.1-0.7-0.2-1.4-0.2-2.2V69.8l8.3-4.9c0,8.5,0,48.1,0,51.5c0,5.5,3.6,6.9,7.1,4.2c0,0,0,0,0,0
			c-0.1-0.6-0.2-1.3-0.2-2V88.9c0-6.1,0.9-13.4,6.7-14.6c6-1.3,8.2,3.7,8.4,4.4l8.2-4.8c0,8.5,0,39.3,0,42.6c0,5.5,3.6,6.9,7.1,4.2
			c0.2-0.1,0.4-0.2,0.6-0.3c-0.1-0.5-0.1-1.1-0.1-1.7V77.5h-5.5l1.3-3.4h4.2V63.7l8.3-4.9c0,2.2,0,9.6,0,15.2h5.9l-1.3,3.4h-4.6
			c0,15.7,0,36.6,0,39c0,5.5,3.6,6.9,7.1,4.2c0,0,0,0,0,0c-0.1-0.6-0.2-1.3-0.2-2V89.6c0-6.1,3.1-8.6,6.9-10.7l5.1-3.1
			c8.3-4.9,11.4,0.3,11.4,6.8V96l-15.1,9.1c0,0-0.1,7.2-0.1,11.4c0,5.5,3.1,6.6,7.3,4.2c0.4-0.3,4.1-2.4,8.6-5v4.4
			C166.9,123.7,161.5,126.9,161.3,127z"/>
		<path fill="#10434B" d="M110.5,38.4c-2.1,0-3.7,1.6-3.8,3.7l6.9-2.1C112.9,39,111.8,38.4,110.5,38.4z"/>
	</g>
</g>
</svg>
