<?xml version="1.0" encoding="utf-8"?>
<!-- Generator: Adobe Illustrator 14.0.0, SVG Export Plug-In . SVG Version: 6.00 Build 43363)  -->
<!DOCTYPE svg PUBLIC "-//W3C//DTD SVG 1.1//EN" "http://www.w3.org/Graphics/SVG/1.1/DTD/svg11.dtd">
<svg version="1.1" xmlns="http://www.w3.org/2000/svg" xmlns:xlink="http://www.w3.org/1999/xlink" x="0px" y="0px" width="360px"
	 height="360px" viewBox="0 0 360 360" enable-background="new 0 0 360 360" xml:space="preserve">
<g id="Layer_9" display="none">
	<rect x="-73" y="-26" display="inline" fill="#30D6FF" width="462" height="435"/>
</g>
<g id="Pint">
	<polygon fill="#FFFFFF" points="179.7,31.1 91,40.3 94,94.5 264,101 269.6,40.9 	"/>
	<path fill="#4B4543" d="M267.6,82.6H94.4v31.8l21.5,206.7c0,0,17.6,9.6,63.8,9.6s63.8-9.6,63.8-9.6l24-231.4V82.6z"/>
	<g>
		<path fill="#4B4543" d="M177.7,37c45.3,0,74.5,4.8,87.5,7.6l-28.5,274c-7.8,2.6-25.6,7-57,7s-49.3-4.4-57-7L94.2,44.4
			C106.2,41.7,133.2,37,177.7,37 M177.7,27c-66,0-94.3,10-94.3,10l30,288.7c0,0,18.3,10,66.3,10s66.3-10,66.3-10L276,37
			C276,37,243.7,27,177.7,27L177.7,27z"/>
	</g>
	
		<line fill="none" stroke="#FFFFFF" stroke-width="10.8284" stroke-linecap="round" stroke-linejoin="round" x1="111" y1="69.9" x2="134.8" y2="305"/>
</g>
<g id="Nonic" display="none">
	<polygon display="inline" fill="#FFFFFF" points="87,35.5 92.2,89.5 268.8,96 272.5,38 216.4,28.5 150.9,28.5 	"/>
	<path display="inline" fill="#4B4543" d="M271,77.7H91l-13.9,38.9c0,0,17.9,33,17.9,33l18.3,176.1c0,0,18.3,10,66.3,10
		s66.3-10,66.3-10L264.8,145l19-28.5L271,77.7z"/>
	<path display="inline" fill="none" stroke="#4B4543" stroke-width="10.8284" stroke-linejoin="round" d="M270.7,87.8L276,37
		c0,0-32.3-10-98.3-10S83.3,37,83.3,37l5.4,51.7c-8,5.5-10.8,15.2-9.6,26.9c1.2,11.7,6.1,22.1,15.1,25.9l19.1,184.2
		c0,0,18.3,10,66.3,10s66.3-10,66.3-10l19.1-183.6c9.7-3.3,15.4-14.1,16.7-26.5C283,103.2,279.6,93,270.7,87.8z"/>
	<path display="inline" fill="none" stroke="#FFFFFF" stroke-width="10.8284" stroke-linecap="round" stroke-linejoin="round" d="
		M108.3,56c1,22.8,2.9,36,2.9,36s-10.2,10-8.6,22c2.1,15.2,14.1,20.6,14.1,20.6l18.4,171.7"/>
</g>
<g id="Tulip_Pint" display="none">
	<path display="inline" fill="#D0D2D3" d="M263.6,82.6H93.9l2.4,77.7l18.4,118l5.3,42.8c0,0,13.6,9.6,59.8,9.6s59.8-9.6,59.8-9.6
		l2.5-48l19.3-121.6L263.6,82.6z"/>
	<path display="inline" fill="none" stroke="#D0D2D3" stroke-width="10" d="M177.7,335.7c37,0,51.5-6.7,60.3-10
		c0-70,23.4-154.3,23.4-203.3c0-76.7-8.4-85.3-8.4-85.3s-9.3-8-75.3-8h0c-66,0-75.3,8-75.3,8c0,0-8.4,8.7-8.4,85.3
		c0,49,23.4,133.3,23.4,203.3C126.3,329,140.7,335.7,177.7,335.7z"/>
	<path display="inline" fill="none" stroke="#FFFFFF" stroke-width="10" stroke-linecap="round" d="M116,66
		c-0.8,11.6-1.3,36.5-1.3,55.7c0,58.3,21.4,118.3,21.4,188.3"/>
</g>
<g id="Snifter" display="none">
	<g display="inline">
		<path fill="#FFFFFF" d="M118.3,159.9L266,163l-18.4-42H138C133.9,127.5,124,144.1,118.3,159.9z"/>
		<path fill="#FFFFFF" d="M126.2,121h-15.7l-14,38.5l11.3,0.2C112.6,145.1,120.8,130.1,126.2,121z"/>
	</g>
	<path display="inline" fill="#4B4543" d="M257.3,140H127.1c-6.5,12.6-13,28.1-13,39.5c0,26.9,13.7,49,36.6,59.2
		c2.5,1.1,3.7,4.1,2.5,6.6c-0.8,1.9-2.7,3-4.6,3c-0.7,0-1.4-0.1-2-0.4c-26.6-11.8-42.5-37.3-42.5-68.3c0-11.8,5.7-26.7,11.9-39.5
		h-14.2c-6.5,13.1-12,27.8-12,40.2c0,48.3,33.7,87.5,90,87.5s90-39.2,90-87.5C269.7,167.7,264,153.1,257.3,140z"/>
	<path display="inline" fill="none" stroke="#4B4543" stroke-width="10" d="M236.7,104.5c0,0,32.9,44.7,32.9,75.7
		c0,48.3-33.7,87.5-90,87.5s-90-39.2-90-87.5c0-30.2,31-74.6,31-74.6s21.5-3.9,59-3.9S236.7,104.5,236.7,104.5z"/>
	<line display="inline" fill="none" stroke="#4B4543" stroke-width="15" x1="179.7" y1="267.7" x2="179.7" y2="318.4"/>
	<path display="inline" fill="#4B4543" d="M244.6,327.7c0,6-29,7.9-64.8,7.9s-64.8-1.9-64.8-7.9s64.8-7.3,64.8-18.9
		C179.8,320.4,244.6,321.7,244.6,327.7z"/>
</g>
<g id="Chalice_2" display="none">
	<polygon display="inline" fill="#FFFFFF" points="269.9,146.5 92.6,146.5 92.6,115.6 179.7,109.7 264.7,114.5 	"/>
	<path display="inline" fill="#4B4543" d="M269.7,160.2c0-12.4,1.7-7.1-4.7-20.2H93c-6.1,13.1-3.3,7.8-3.3,20.2
		c0,48.3,33.7,87.5,90,87.5S269.7,208.5,269.7,160.2z"/>
	<path display="inline" fill="none" stroke="#4B4543" stroke-width="10" d="M264.7,114.5c0,0,4.9,14.7,4.9,45.7
		c0,48.3-33.7,87.5-90,87.5s-90-39.2-90-87.5c0-30.2,3-44.6,3-44.6s22.2-5.9,87-5.9S264.7,114.5,264.7,114.5z"/>
	<line display="inline" fill="none" stroke="#4B4543" stroke-width="25" x1="179.7" y1="247.7" x2="179.7" y2="318.4"/>
	<path display="inline" fill="#4B4543" d="M247.2,328.6c0,7-30.2,9.2-67.5,9.2c-37.3,0-67.5-2.2-67.5-9.2s67.5-8.5,67.5-21.9
		C179.8,320.1,247.2,321.6,247.2,328.6z"/>
	<path display="inline" fill="#4B4543" d="M200.1,284c0-5.7-2.6-10.7-6.8-14.2c-0.7-0.7-1.2-1.7-1.2-2.8h-3.1
		c-2.8-1.4-6-2.2-9.4-2.2c-3.4,0-6.6,0.8-9.4,2.2h-3.1c0,1.1-0.5,2.1-1.2,2.8c-4.1,3.5-6.8,8.5-6.8,14.2c0,5.6,2.6,10.6,6.6,14.1
		c0.8,0.7,1.3,1.8,1.3,2.9h3.2c2.8,1.3,6,2.1,9.3,2.1s6.5-0.8,9.3-2.1h3.2c0-1.1,0.5-2.2,1.3-2.9C197.5,294.6,200.1,289.6,200.1,284
		z"/>
	<path display="inline" fill="none" stroke="#FFFFFF" stroke-width="10" stroke-linecap="round" d="M178.7,232.8
		c-45.7-1-73-33.3-73-73c0-10.7,0.4-19,1-25.1"/>
</g>
<g id="Tulip" display="none">
	<polygon display="inline" fill="#FFFFFF" points="173.5,104 115,87.5 120.9,65.4 118.6,44.5 179.7,39.7 238.7,44.5 238.7,68.5 
		244.6,97.7 	"/>
	<path display="inline" fill="#4B4543" d="M99.7,160.2c0,48.3,31.3,77.5,80,77.5s80-29.2,80-77.5c0-19.6-11.5-46.5-18-72.6H116
		C110.2,113.9,99.7,141,99.7,160.2z"/>
	<path display="inline" fill="none" stroke="#4B4543" stroke-width="10" d="M238.7,44.5c-7.8,35.8,20.9,84.7,20.9,115.7
		c0,48.3-31.3,77.5-80,77.5s-80-29.2-80-77.5c0-30.2,26-79.9,19-115.7c15.2-1.9,23.5-4.8,61-4.8S225.5,42,238.7,44.5z"/>
	<path display="inline" fill="none" stroke="#FFFFFF" stroke-width="10" stroke-linecap="round" d="M145.2,210.4
		c-15.7-11.5-25.7-25.3-25.7-49.5c0-26.4,23.7-74.7,17.6-106"/>
	<line display="inline" fill="none" stroke="#4B4543" stroke-width="15" x1="179.7" y1="237.7" x2="179.7" y2="316"/>
	<path display="inline" fill="#4B4543" d="M244.6,324.7c0,6-29,10.9-64.8,10.9s-64.8-4.9-64.8-10.9s64.8-11.3,64.8-22.9
		C179.8,313.4,244.6,318.7,244.6,324.7z"/>
</g>
<g id="Stange" display="none">
	<polygon display="inline" fill="#FFFFFF" points="231,141.5 128,141.5 128,79.4 179.5,73.6 231,79.4 	"/>
	<path display="inline" fill="#4B4543" d="M234.5,122.1H127.5v32l1.4,167.5c0,0,6.8,9.7,50.8,9.7c44,0,50.8-9.7,50.8-9.7l3.9-192.3
		V122.1z"/>
	<g display="inline">
		<path fill="#4B4543" d="M177.7,79c25,0,40.6,3.1,48.3,5.2v234.2c-7.7,2.1-23.1,5.2-46.3,5.2c-23.2,0-38.6-3.1-46.3-5.2V83.8
			C139.9,81.8,153.6,79,177.7,79 M177.7,69c-41.2,0-54.3,8-54.3,8v248.7c0,0,18.2,8,56.3,8s56.3-8,56.3-8V77
			C236,77,218.8,69,177.7,69L177.7,69z"/>
	</g>
	
		<line display="inline" fill="none" stroke="#FFFFFF" stroke-width="10" stroke-linecap="round" x1="148" y1="108" x2="148" y2="301"/>
</g>
<g id="Weizen" display="none">
	<polygon display="inline" fill="#FFFFFF" points="247,94.5 113.5,94.5 124.5,23.5 235,23.5 	"/>
	<path display="inline" fill="#4B4543" d="M235.3,330.9c-3.9-40.3-9.1-44.2-9.1-92.2s21-89.2,21-116.4c0-17.4-0.9-34.5-2.9-50.9
		h-128c-2,16.4-2.9,33.5-2.9,50.9c0,27.3,21,68.3,21,116.4s-5.2,52-9.1,92.2C151.4,342.6,209.1,342.6,235.3,330.9z"/>
	<path display="inline" fill="none" stroke="#4B4543" stroke-width="10" d="M125.2,330.9c3.9-40.3,9.1-44.2,9.1-92.2
		s-21-89-21-116.4c0-34.6,3.7-68,12-97.2C132.7,23.7,157,21,181,21c23.5,0,46.9,2.7,54.1,4.1c8.4,29.3,12,62.6,12,97.2
		c0,27.2-21,68.3-21,116.4s5.2,52,9.1,92.2C209.1,342.6,151.4,342.6,125.2,330.9z"/>
	<path display="inline" fill="none" stroke="#FFFFFF" stroke-width="10" stroke-linecap="round" d="M145.6,314
		c0,0,6.1-28.2,6.1-76.2c0-48.1-18-90-18-117.4c0-19.8,1.2-48.2,3.8-66.7"/>
</g>
<g id="Pilsner" display="none">
	<polygon display="inline" fill="#FFFFFF" points="239,79.5 120,79.5 113,40 178.5,31.1 244,40 	"/>
	<polygon display="inline" fill="#4B4543" points="239.3,69.6 120.2,69.6 157.7,321.1 179.4,332.3 203.3,321.1 	"/>
	<g display="inline">
		<path fill="#4B4543" d="M177.8,37c30.8,0,51.8,4.2,62.1,7l-43.2,276.9c-2.3,1.8-7.5,4.7-17,4.7s-14.7-3-17-4.7L119.6,43.7
			C128.9,41,147.8,37,177.8,37 M177.8,27c-48.4,0-69.3,10-69.3,10l45,288.7c0,0,7.2,10,26.3,10c19.2,0,26.3-10,26.3-10l45-288.7
			C251.1,37,226.2,27,177.8,27L177.8,27z"/>
	</g>
	<ellipse display="inline" fill="#4B4543" cx="179.8" cy="333.7" rx="59.7" ry="13.3"/>
	<path display="inline" fill="#4B4543" d="M201.1,325.7l6.6-37.8h-5c0,11.5-10.7,20.8-23.2,20.8c-12.5,0-22.7-9.3-22.7-20.8h-4.9
		l6.6,37.8c0,0,2.2,5,21.3,5C198.9,330.7,201.1,325.7,201.1,325.7z"/>
	
		<line display="inline" fill="none" stroke="#FFFFFF" stroke-width="10" stroke-linecap="round" x1="136.2" y1="57" x2="168.8" y2="287.8"/>
</g>
</svg>
