<?xml version="1.0" encoding="utf-8"?>
<!DOCTYPE svg PUBLIC "-//W3C//DTD SVG 1.1//EN" "http://www.w3.org/Graphics/SVG/1.1/DTD/svg11.dtd">
<svg version="1.1" id="Layer_1" xmlns="http://www.w3.org/2000/svg" xmlns:xlink="http://www.w3.org/1999/xlink" x="0px" y="0px"
	 width="360px" height="360px" viewBox="0 0 360 360" enable-background="new 0 0 360 360" xml:space="preserve">
<g>
	<path fill="#FFFFFF" d="M181.9,236.7c1.1,0,2.2-0.5,3-1.3L344.7,75.6c-0.5-0.1-1-0.2-1.6-0.2H19.3l160.3,160.3
		C180.4,236.5,181.3,236.7,181.9,236.7z"/>
	<path fill="#FFFFFF" d="M194.6,245.1c-3.4,3.4-8,5.3-12.7,5.3c-4.5,0-8.8-1.7-12-4.9L9.5,85v189.4c0,4.4,3.6,8,8,8h325.7
		c4.4,0,8-3.6,8-8V88.6L194.6,245.1z"/>
</g>
</svg>
