<?xml version="1.0" encoding="utf-8"?>
<!DOCTYPE svg PUBLIC "-//W3C//DTD SVG 1.1//EN" "http://www.w3.org/Graphics/SVG/1.1/DTD/svg11.dtd">
<svg version="1.1" id="Layer_1" xmlns="http://www.w3.org/2000/svg" xmlns:xlink="http://www.w3.org/1999/xlink" x="0px" y="0px"
	 width="500px" height="500px" viewBox="0 0 500 500" enable-background="new 0 0 500 500" xml:space="preserve">
<g id="Layer_1_1_" display="none">
	<g display="inline">
		<path fill="#FFFFFF" d="M470.5,2.14h-441C14.39,2.14,2.14,14.39,2.14,29.5v441c0,15.11,12.25,27.36,27.36,27.36h237.42v-191.97
			h-64.6V231.07h64.6V175.9c0-64.03,39.109-98.89,96.221-98.89c27.359,0,50.879,2.04,57.729,2.95v66.91l-39.61,0.02
			c-31.06,0-37.08,14.76-37.08,36.42v47.76h74.08l-9.649,74.821h-64.44v191.97H470.5c15.11,0,27.36-12.25,27.36-27.36v-441
			C497.86,14.39,485.61,2.14,470.5,2.14"/>
	</g>
</g>
<g>
	<g>
		<g id="Layer_2" display="none">
			<defs>
				<rect id="SVGID_1_" y="43.63" width="498.9" height="405.43"/>
			</defs>
			<clipPath id="SVGID_2_" display="inline">
				<use xlink:href="#SVGID_1_"  overflow="visible"/>
			</clipPath>
			<g display="inline" clip-path="url(#SVGID_2_)">
				<g>
					<defs>
						<rect id="SVGID_3_" x="-0.11" y="42.2" width="500.12" height="406.97"/>
					</defs>
					<clipPath id="SVGID_4_">
						<use xlink:href="#SVGID_3_"  overflow="visible"/>
					</clipPath>
					<path clip-path="url(#SVGID_4_)" fill="#FFFFFF" d="M156.83,449.17c-57.82,0-111.63-16.95-156.94-46
						c8.01,0.95,16.16,1.43,24.42,1.43c47.96,0,92.11-16.369,127.15-43.819c-44.8-0.83-82.61-30.431-95.63-71.101
						c6.25,1.2,12.66,1.84,19.26,1.84c9.34,0,18.38-1.25,26.97-3.59c-46.84-9.4-82.12-50.78-82.12-100.39c0-0.43,0-0.86,0.01-1.29
						c13.8,7.67,29.59,12.27,46.37,12.8c-27.47-18.36-45.55-49.69-45.55-85.21c0-18.76,5.05-36.35,13.86-51.47
						c50.5,61.94,125.93,102.7,211.02,106.97c-1.75-7.5-2.65-15.31-2.65-23.34c0-56.54,45.84-102.38,102.38-102.38
						c29.44,0,56.05,12.43,74.73,32.33c23.319-4.59,45.229-13.11,65.01-24.84c-7.64,23.91-23.88,43.97-45.01,56.64
						c20.71-2.48,40.439-7.98,58.8-16.12c-13.73,20.53-31.08,38.56-51.09,53c0.199,4.39,0.3,8.8,0.3,13.24
						C448.11,293.16,345.141,449.17,156.83,449.17"/>
				</g>
			</g>
		</g>
		<g id="Layer_3">
			<g>
				<g>
					<defs>
						<rect id="SVGID_5_" x="3.79" y="3.74" width="492.26" height="492.26"/>
					</defs>
					<clipPath id="SVGID_6_">
						<use xlink:href="#SVGID_5_"  overflow="visible"/>
					</clipPath>
					<path clip-path="url(#SVGID_6_)" fill="#ECEAE2" d="M438.52,211.63H395.74c3.12,12.1,4.96,24.74,4.96,37.81
						c0,83.52-67.69,151.21-151.2,151.21c-83.5,0-151.2-67.69-151.2-151.21c0-13.07,1.85-25.71,4.96-37.81H60.48v207.92
						c0,10.431,8.47,18.88,18.92,18.88h340.2c10.46,0,18.92-8.46,18.92-18.88V211.63L438.52,211.63z M438.52,79.33
						c0-10.43-8.46-18.9-18.92-18.9H362.91c-10.44,0-18.891,8.46-18.891,18.9v56.71c0,10.43,8.45,18.9,18.891,18.9H419.6
						c10.46,0,18.92-8.47,18.92-18.9V79.33z M249.5,154.94c-52.2,0-94.5,42.3-94.5,94.5c0,52.19,42.31,94.52,94.5,94.52
						c52.189,0,94.52-42.319,94.52-94.52C344.02,197.24,301.7,154.94,249.5,154.94 M438.52,495.15H60.48
						c-31.31,0-56.69-25.391-56.69-56.721v-378c0-31.31,25.38-56.69,56.69-56.69h378.04c31.311,0,56.69,25.38,56.69,56.69v378
						C495.21,469.76,469.84,495.15,438.52,495.15"/>
				</g>
			</g>
		</g>
	</g>
</g>
</svg>
